<mxfile host="app.diagrams.net" modified="2024-02-22T10:54:14.226Z" agent="Mozilla/5.0 (Windows NT 10.0; Win64; x64) AppleWebKit/537.36 (KHTML, like Gecko) Chrome/121.0.0.0 Safari/537.36" etag="KAR6IbtT-q7_lTPynmg4" version="22.1.16" type="google">
  <diagram id="ROz_FUJB-crgh7u9KIzS" name="Trang-1">
    <mxGraphModel grid="0" page="0" gridSize="10" guides="1" tooltips="1" connect="1" arrows="1" fold="1" pageScale="1" pageWidth="827" pageHeight="1169" math="0" shadow="0">
      <root>
        <mxCell id="0" />
        <mxCell id="1" parent="0" />
        <mxCell id="SsWh1Jsw6skmhXWUFT4k-97" value="" style="rounded=0;whiteSpace=wrap;html=1;fillColor=#dae8fc;strokeColor=#6c8ebf;dashed=1;strokeWidth=0;fillStyle=auto;" vertex="1" parent="1">
          <mxGeometry x="-513" y="-465" width="436" height="519" as="geometry" />
        </mxCell>
        <mxCell id="SsWh1Jsw6skmhXWUFT4k-94" value="" style="rounded=0;whiteSpace=wrap;html=1;fillColor=#f8cecc;strokeColor=#b85450;dashed=1;strokeWidth=0;fillStyle=auto;" vertex="1" parent="1">
          <mxGeometry x="-75" y="-194" width="177" height="363" as="geometry" />
        </mxCell>
        <mxCell id="SsWh1Jsw6skmhXWUFT4k-92" value="" style="rounded=0;whiteSpace=wrap;html=1;fillColor=#fff2cc;strokeColor=#d6b656;dashed=1;strokeWidth=0;gradientColor=none;fillStyle=auto;" vertex="1" parent="1">
          <mxGeometry x="-77" y="-474" width="417" height="280" as="geometry" />
        </mxCell>
        <mxCell id="SsWh1Jsw6skmhXWUFT4k-91" value="" style="rounded=0;whiteSpace=wrap;html=1;fillColor=#fff2cc;strokeColor=#d6b656;dashed=1;strokeWidth=0;gradientColor=none;fillStyle=auto;" vertex="1" parent="1">
          <mxGeometry x="-282" y="-704" width="915" height="237" as="geometry" />
        </mxCell>
        <mxCell id="SsWh1Jsw6skmhXWUFT4k-89" value="" style="rounded=0;whiteSpace=wrap;html=1;fillColor=#e1d5e7;strokeColor=#9673a6;dashed=1;strokeWidth=0;" vertex="1" parent="1">
          <mxGeometry x="100" y="-192" width="418" height="430" as="geometry" />
        </mxCell>
        <mxCell id="SsWh1Jsw6skmhXWUFT4k-87" value="" style="rounded=0;whiteSpace=wrap;html=1;fillColor=#e1d5e7;strokeColor=#9673a6;dashed=1;strokeWidth=0;" vertex="1" parent="1">
          <mxGeometry x="341" y="-467" width="418" height="705" as="geometry" />
        </mxCell>
        <mxCell id="Y2-m1TY2lKCQPCWbgqXC-1" value="COOPERATE" style="swimlane;fontStyle=0;childLayout=stackLayout;horizontal=1;startSize=30;horizontalStack=0;resizeParent=1;resizeParentMax=0;resizeLast=0;collapsible=1;marginBottom=0;whiteSpace=wrap;html=1;labelBackgroundColor=none;fillColor=#A8DADC;strokeColor=#457B9D;fontColor=#1D3557;" vertex="1" parent="1">
          <mxGeometry x="-231" y="-453" width="140" height="120" as="geometry">
            <mxRectangle x="-231" y="-464" width="110" height="30" as="alternateBounds" />
          </mxGeometry>
        </mxCell>
        <mxCell id="Y2-m1TY2lKCQPCWbgqXC-2" value="CooperateID" style="text;strokeColor=none;fillColor=none;align=left;verticalAlign=middle;spacingLeft=4;spacingRight=4;overflow=hidden;points=[[0,0.5],[1,0.5]];portConstraint=eastwest;rotatable=0;whiteSpace=wrap;html=1;fontStyle=5;labelBackgroundColor=none;fontColor=#1D3557;" vertex="1" parent="Y2-m1TY2lKCQPCWbgqXC-1">
          <mxGeometry y="30" width="140" height="30" as="geometry" />
        </mxCell>
        <mxCell id="Y2-m1TY2lKCQPCWbgqXC-3" value="CooperateType(...)" style="text;strokeColor=none;fillColor=none;align=left;verticalAlign=middle;spacingLeft=4;spacingRight=4;overflow=hidden;points=[[0,0.5],[1,0.5]];portConstraint=eastwest;rotatable=0;whiteSpace=wrap;html=1;labelBackgroundColor=none;fontColor=#1D3557;" vertex="1" parent="Y2-m1TY2lKCQPCWbgqXC-1">
          <mxGeometry y="60" width="140" height="30" as="geometry" />
        </mxCell>
        <mxCell id="Y2-m1TY2lKCQPCWbgqXC-4" value="Commission" style="text;strokeColor=none;fillColor=none;align=left;verticalAlign=middle;spacingLeft=4;spacingRight=4;overflow=hidden;points=[[0,0.5],[1,0.5]];portConstraint=eastwest;rotatable=0;whiteSpace=wrap;html=1;labelBackgroundColor=none;fontColor=#1D3557;" vertex="1" parent="Y2-m1TY2lKCQPCWbgqXC-1">
          <mxGeometry y="90" width="140" height="30" as="geometry" />
        </mxCell>
        <mxCell id="Y2-m1TY2lKCQPCWbgqXC-5" value="BANK" style="swimlane;fontStyle=0;childLayout=stackLayout;horizontal=1;startSize=30;horizontalStack=0;resizeParent=1;resizeParentMax=0;resizeLast=0;collapsible=1;marginBottom=0;whiteSpace=wrap;html=1;labelBackgroundColor=none;fillColor=#A8DADC;strokeColor=#457B9D;fontColor=#1D3557;" vertex="1" parent="1">
          <mxGeometry x="-424" y="-180" width="140" height="150" as="geometry" />
        </mxCell>
        <mxCell id="Y2-m1TY2lKCQPCWbgqXC-6" value="BankID" style="text;strokeColor=none;fillColor=none;align=left;verticalAlign=middle;spacingLeft=4;spacingRight=4;overflow=hidden;points=[[0,0.5],[1,0.5]];portConstraint=eastwest;rotatable=0;whiteSpace=wrap;html=1;fontStyle=5;labelBackgroundColor=none;fontColor=#1D3557;" vertex="1" parent="Y2-m1TY2lKCQPCWbgqXC-5">
          <mxGeometry y="30" width="140" height="30" as="geometry" />
        </mxCell>
        <mxCell id="Y2-m1TY2lKCQPCWbgqXC-8" value="CooperateID" style="text;strokeColor=none;fillColor=none;align=left;verticalAlign=middle;spacingLeft=4;spacingRight=4;overflow=hidden;points=[[0,0.5],[1,0.5]];portConstraint=eastwest;rotatable=0;whiteSpace=wrap;html=1;labelBackgroundColor=none;fontColor=#1D3557;" vertex="1" parent="Y2-m1TY2lKCQPCWbgqXC-5">
          <mxGeometry y="60" width="140" height="30" as="geometry" />
        </mxCell>
        <mxCell id="SsWh1Jsw6skmhXWUFT4k-74" value="" style="endArrow=none;dashed=1;html=1;rounded=0;strokeColor=#457B9D;fontColor=#1D3557;fillColor=#A8DADC;" edge="1" parent="Y2-m1TY2lKCQPCWbgqXC-5">
          <mxGeometry width="50" height="50" relative="1" as="geometry">
            <mxPoint x="6" y="83" as="sourcePoint" />
            <mxPoint x="69" y="83" as="targetPoint" />
          </mxGeometry>
        </mxCell>
        <mxCell id="Y2-m1TY2lKCQPCWbgqXC-7" value="BankName" style="text;strokeColor=none;fillColor=none;align=left;verticalAlign=middle;spacingLeft=4;spacingRight=4;overflow=hidden;points=[[0,0.5],[1,0.5]];portConstraint=eastwest;rotatable=0;whiteSpace=wrap;html=1;labelBackgroundColor=none;fontColor=#1D3557;" vertex="1" parent="Y2-m1TY2lKCQPCWbgqXC-5">
          <mxGeometry y="90" width="140" height="30" as="geometry" />
        </mxCell>
        <mxCell id="SsWh1Jsw6skmhXWUFT4k-23" value="LocationID" style="text;strokeColor=none;fillColor=none;align=left;verticalAlign=middle;spacingLeft=4;spacingRight=4;overflow=hidden;points=[[0,0.5],[1,0.5]];portConstraint=eastwest;rotatable=0;whiteSpace=wrap;html=1;labelBackgroundColor=none;fontColor=#1D3557;" vertex="1" parent="Y2-m1TY2lKCQPCWbgqXC-5">
          <mxGeometry y="120" width="140" height="30" as="geometry" />
        </mxCell>
        <mxCell id="SsWh1Jsw6skmhXWUFT4k-73" value="" style="endArrow=none;dashed=1;html=1;rounded=0;strokeColor=#457B9D;fontColor=#1D3557;fillColor=#A8DADC;" edge="1" parent="Y2-m1TY2lKCQPCWbgqXC-5">
          <mxGeometry width="50" height="50" relative="1" as="geometry">
            <mxPoint x="7" y="142" as="sourcePoint" />
            <mxPoint x="70" y="142" as="targetPoint" />
          </mxGeometry>
        </mxCell>
        <mxCell id="2KepZhN_-aNy6SNeq9I4-3" value="CONTACT" style="swimlane;fontStyle=0;childLayout=stackLayout;horizontal=1;startSize=30;horizontalStack=0;resizeParent=1;resizeParentMax=0;resizeLast=0;collapsible=1;marginBottom=0;whiteSpace=wrap;html=1;labelBackgroundColor=none;fillColor=#A8DADC;strokeColor=#457B9D;fontColor=#1D3557;" vertex="1" parent="1">
          <mxGeometry x="178" y="-121" width="140" height="150" as="geometry" />
        </mxCell>
        <mxCell id="2KepZhN_-aNy6SNeq9I4-4" value="ContactID" style="text;strokeColor=none;fillColor=none;align=left;verticalAlign=middle;spacingLeft=4;spacingRight=4;overflow=hidden;points=[[0,0.5],[1,0.5]];portConstraint=eastwest;rotatable=0;whiteSpace=wrap;html=1;fontStyle=5;labelBackgroundColor=none;fontColor=#1D3557;" vertex="1" parent="2KepZhN_-aNy6SNeq9I4-3">
          <mxGeometry y="30" width="140" height="30" as="geometry" />
        </mxCell>
        <mxCell id="2KepZhN_-aNy6SNeq9I4-5" value="Phone" style="text;strokeColor=none;fillColor=none;align=left;verticalAlign=middle;spacingLeft=4;spacingRight=4;overflow=hidden;points=[[0,0.5],[1,0.5]];portConstraint=eastwest;rotatable=0;whiteSpace=wrap;html=1;labelBackgroundColor=none;fontColor=#1D3557;" vertex="1" parent="2KepZhN_-aNy6SNeq9I4-3">
          <mxGeometry y="60" width="140" height="30" as="geometry" />
        </mxCell>
        <mxCell id="2KepZhN_-aNy6SNeq9I4-6" value="Mail" style="text;strokeColor=none;fillColor=none;align=left;verticalAlign=middle;spacingLeft=4;spacingRight=4;overflow=hidden;points=[[0,0.5],[1,0.5]];portConstraint=eastwest;rotatable=0;whiteSpace=wrap;html=1;labelBackgroundColor=none;fontColor=#1D3557;" vertex="1" parent="2KepZhN_-aNy6SNeq9I4-3">
          <mxGeometry y="90" width="140" height="30" as="geometry" />
        </mxCell>
        <mxCell id="SsWh1Jsw6skmhXWUFT4k-5" value="LocationID" style="text;strokeColor=none;fillColor=none;align=left;verticalAlign=middle;spacingLeft=4;spacingRight=4;overflow=hidden;points=[[0,0.5],[1,0.5]];portConstraint=eastwest;rotatable=0;whiteSpace=wrap;html=1;fontStyle=0;labelBackgroundColor=none;fontColor=#1D3557;" vertex="1" parent="2KepZhN_-aNy6SNeq9I4-3">
          <mxGeometry y="120" width="140" height="30" as="geometry" />
        </mxCell>
        <mxCell id="SsWh1Jsw6skmhXWUFT4k-66" value="" style="endArrow=none;dashed=1;html=1;rounded=0;strokeColor=#457B9D;fontColor=#1D3557;fillColor=#A8DADC;" edge="1" parent="2KepZhN_-aNy6SNeq9I4-3">
          <mxGeometry width="50" height="50" relative="1" as="geometry">
            <mxPoint x="4" y="141.0000000000001" as="sourcePoint" />
            <mxPoint x="67" y="141.0000000000001" as="targetPoint" />
          </mxGeometry>
        </mxCell>
        <mxCell id="Y2-m1TY2lKCQPCWbgqXC-9" value="BANKACCOUNT" style="swimlane;fontStyle=0;childLayout=stackLayout;horizontal=1;startSize=30;horizontalStack=0;resizeParent=1;resizeParentMax=0;resizeLast=0;collapsible=1;marginBottom=0;whiteSpace=wrap;html=1;labelBackgroundColor=none;fillColor=#A8DADC;strokeColor=#457B9D;fontColor=#1D3557;" vertex="1" parent="1">
          <mxGeometry x="-234" y="-210" width="140" height="120" as="geometry" />
        </mxCell>
        <mxCell id="Y2-m1TY2lKCQPCWbgqXC-10" value="BankCardNo" style="text;strokeColor=none;fillColor=none;align=left;verticalAlign=middle;spacingLeft=4;spacingRight=4;overflow=hidden;points=[[0,0.5],[1,0.5]];portConstraint=eastwest;rotatable=0;whiteSpace=wrap;html=1;fontStyle=5;labelBackgroundColor=none;fontColor=#1D3557;" vertex="1" parent="Y2-m1TY2lKCQPCWbgqXC-9">
          <mxGeometry y="30" width="140" height="30" as="geometry" />
        </mxCell>
        <mxCell id="Y2-m1TY2lKCQPCWbgqXC-11" value="BankID" style="text;strokeColor=none;fillColor=none;align=left;verticalAlign=middle;spacingLeft=4;spacingRight=4;overflow=hidden;points=[[0,0.5],[1,0.5]];portConstraint=eastwest;rotatable=0;whiteSpace=wrap;html=1;labelBackgroundColor=none;fontColor=#1D3557;" vertex="1" parent="Y2-m1TY2lKCQPCWbgqXC-9">
          <mxGeometry y="60" width="140" height="30" as="geometry" />
        </mxCell>
        <mxCell id="SsWh1Jsw6skmhXWUFT4k-71" value="" style="endArrow=none;dashed=1;html=1;rounded=0;strokeColor=#457B9D;fontColor=#1D3557;fillColor=#A8DADC;" edge="1" parent="Y2-m1TY2lKCQPCWbgqXC-9">
          <mxGeometry width="50" height="50" relative="1" as="geometry">
            <mxPoint x="6" y="85" as="sourcePoint" />
            <mxPoint x="46" y="85" as="targetPoint" />
          </mxGeometry>
        </mxCell>
        <mxCell id="Y2-m1TY2lKCQPCWbgqXC-12" value="BankMoneyDetail" style="text;strokeColor=none;fillColor=none;align=left;verticalAlign=middle;spacingLeft=4;spacingRight=4;overflow=hidden;points=[[0,0.5],[1,0.5]];portConstraint=eastwest;rotatable=0;whiteSpace=wrap;html=1;labelBackgroundColor=none;fontColor=#1D3557;" vertex="1" parent="Y2-m1TY2lKCQPCWbgqXC-9">
          <mxGeometry y="90" width="140" height="30" as="geometry" />
        </mxCell>
        <mxCell id="ip9N9a8k5Pp6pJVHzamk-7" value="SECURITY" style="swimlane;fontStyle=0;childLayout=stackLayout;horizontal=1;startSize=30;horizontalStack=0;resizeParent=1;resizeParentMax=0;resizeLast=0;collapsible=1;marginBottom=0;whiteSpace=wrap;html=1;labelBackgroundColor=none;fillColor=#A8DADC;strokeColor=#457B9D;fontColor=#1D3557;" vertex="1" parent="1">
          <mxGeometry x="597" y="-270" width="140" height="150" as="geometry" />
        </mxCell>
        <mxCell id="ip9N9a8k5Pp6pJVHzamk-8" value="&lt;u&gt;&lt;b&gt;SecurityID&lt;/b&gt;&lt;/u&gt;" style="text;strokeColor=none;fillColor=none;align=left;verticalAlign=middle;spacingLeft=4;spacingRight=4;overflow=hidden;points=[[0,0.5],[1,0.5]];portConstraint=eastwest;rotatable=0;whiteSpace=wrap;html=1;labelBackgroundColor=none;fontColor=#1D3557;" vertex="1" parent="ip9N9a8k5Pp6pJVHzamk-7">
          <mxGeometry y="30" width="140" height="30" as="geometry" />
        </mxCell>
        <mxCell id="ip9N9a8k5Pp6pJVHzamk-9" value="FingerPrint" style="text;strokeColor=none;fillColor=none;align=left;verticalAlign=middle;spacingLeft=4;spacingRight=4;overflow=hidden;points=[[0,0.5],[1,0.5]];portConstraint=eastwest;rotatable=0;whiteSpace=wrap;html=1;labelBackgroundColor=none;fontColor=#1D3557;" vertex="1" parent="ip9N9a8k5Pp6pJVHzamk-7">
          <mxGeometry y="60" width="140" height="30" as="geometry" />
        </mxCell>
        <mxCell id="ip9N9a8k5Pp6pJVHzamk-20" value="PinCode" style="text;strokeColor=none;fillColor=none;align=left;verticalAlign=middle;spacingLeft=4;spacingRight=4;overflow=hidden;points=[[0,0.5],[1,0.5]];portConstraint=eastwest;rotatable=0;whiteSpace=wrap;html=1;labelBackgroundColor=none;fontColor=#1D3557;" vertex="1" parent="ip9N9a8k5Pp6pJVHzamk-7">
          <mxGeometry y="90" width="140" height="30" as="geometry" />
        </mxCell>
        <mxCell id="2KepZhN_-aNy6SNeq9I4-11" value="Password" style="text;strokeColor=none;fillColor=none;align=left;verticalAlign=middle;spacingLeft=4;spacingRight=4;overflow=hidden;points=[[0,0.5],[1,0.5]];portConstraint=eastwest;rotatable=0;whiteSpace=wrap;html=1;labelBackgroundColor=none;fontColor=#1D3557;" vertex="1" parent="ip9N9a8k5Pp6pJVHzamk-7">
          <mxGeometry y="120" width="140" height="30" as="geometry" />
        </mxCell>
        <mxCell id="ip9N9a8k5Pp6pJVHzamk-21" value="CUSTOMER" style="swimlane;fontStyle=0;childLayout=stackLayout;horizontal=1;startSize=30;horizontalStack=0;resizeParent=1;resizeParentMax=0;resizeLast=0;collapsible=1;marginBottom=0;whiteSpace=wrap;html=1;labelBackgroundColor=none;fillColor=#A8DADC;strokeColor=#457B9D;fontColor=#1D3557;" vertex="1" parent="1">
          <mxGeometry x="372" y="-56" width="140" height="270" as="geometry" />
        </mxCell>
        <mxCell id="ip9N9a8k5Pp6pJVHzamk-22" value="&lt;u&gt;&lt;b&gt;CustomerID&lt;/b&gt;&lt;/u&gt;" style="text;strokeColor=none;fillColor=none;align=left;verticalAlign=middle;spacingLeft=4;spacingRight=4;overflow=hidden;points=[[0,0.5],[1,0.5]];portConstraint=eastwest;rotatable=0;whiteSpace=wrap;html=1;labelBackgroundColor=none;fontColor=#1D3557;" vertex="1" parent="ip9N9a8k5Pp6pJVHzamk-21">
          <mxGeometry y="30" width="140" height="30" as="geometry" />
        </mxCell>
        <mxCell id="ip9N9a8k5Pp6pJVHzamk-27" value="AccountID" style="text;strokeColor=none;fillColor=none;align=left;verticalAlign=middle;spacingLeft=4;spacingRight=4;overflow=hidden;points=[[0,0.5],[1,0.5]];portConstraint=eastwest;rotatable=0;whiteSpace=wrap;html=1;fontStyle=0;labelBackgroundColor=none;fontColor=#1D3557;" vertex="1" parent="ip9N9a8k5Pp6pJVHzamk-21">
          <mxGeometry y="60" width="140" height="30" as="geometry" />
        </mxCell>
        <mxCell id="SsWh1Jsw6skmhXWUFT4k-67" value="" style="endArrow=none;dashed=1;html=1;rounded=0;strokeColor=#457B9D;fontColor=#1D3557;fillColor=#A8DADC;" edge="1" parent="ip9N9a8k5Pp6pJVHzamk-21">
          <mxGeometry width="50" height="50" relative="1" as="geometry">
            <mxPoint x="3" y="83" as="sourcePoint" />
            <mxPoint x="66" y="83" as="targetPoint" />
          </mxGeometry>
        </mxCell>
        <mxCell id="SsWh1Jsw6skmhXWUFT4k-25" value="BankcardNo" style="text;strokeColor=none;fillColor=none;align=left;verticalAlign=middle;spacingLeft=4;spacingRight=4;overflow=hidden;points=[[0,0.5],[1,0.5]];portConstraint=eastwest;rotatable=0;whiteSpace=wrap;html=1;labelBackgroundColor=none;fontStyle=0;fontColor=#1D3557;" vertex="1" parent="ip9N9a8k5Pp6pJVHzamk-21">
          <mxGeometry y="90" width="140" height="30" as="geometry" />
        </mxCell>
        <mxCell id="SsWh1Jsw6skmhXWUFT4k-68" value="" style="endArrow=none;dashed=1;html=1;rounded=0;strokeColor=#457B9D;fontColor=#1D3557;fillColor=#A8DADC;" edge="1" parent="ip9N9a8k5Pp6pJVHzamk-21">
          <mxGeometry width="50" height="50" relative="1" as="geometry">
            <mxPoint x="4" y="112" as="sourcePoint" />
            <mxPoint x="67" y="112" as="targetPoint" />
          </mxGeometry>
        </mxCell>
        <mxCell id="ip9N9a8k5Pp6pJVHzamk-28" value="ContactID" style="text;strokeColor=none;fillColor=none;align=left;verticalAlign=middle;spacingLeft=4;spacingRight=4;overflow=hidden;points=[[0,0.5],[1,0.5]];portConstraint=eastwest;rotatable=0;whiteSpace=wrap;html=1;fontStyle=0;labelBackgroundColor=none;fontColor=#1D3557;" vertex="1" parent="ip9N9a8k5Pp6pJVHzamk-21">
          <mxGeometry y="120" width="140" height="30" as="geometry" />
        </mxCell>
        <mxCell id="SsWh1Jsw6skmhXWUFT4k-69" value="" style="endArrow=none;dashed=1;html=1;rounded=0;strokeColor=#457B9D;fontColor=#1D3557;fillColor=#A8DADC;" edge="1" parent="ip9N9a8k5Pp6pJVHzamk-21">
          <mxGeometry width="50" height="50" relative="1" as="geometry">
            <mxPoint x="4" y="143" as="sourcePoint" />
            <mxPoint x="67" y="143" as="targetPoint" />
          </mxGeometry>
        </mxCell>
        <mxCell id="ip9N9a8k5Pp6pJVHzamk-23" value="First Name" style="text;strokeColor=none;fillColor=none;align=left;verticalAlign=middle;spacingLeft=4;spacingRight=4;overflow=hidden;points=[[0,0.5],[1,0.5]];portConstraint=eastwest;rotatable=0;whiteSpace=wrap;html=1;labelBackgroundColor=none;fontColor=#1D3557;" vertex="1" parent="ip9N9a8k5Pp6pJVHzamk-21">
          <mxGeometry y="150" width="140" height="30" as="geometry" />
        </mxCell>
        <mxCell id="ip9N9a8k5Pp6pJVHzamk-24" value="Last Name" style="text;strokeColor=none;fillColor=none;align=left;verticalAlign=middle;spacingLeft=4;spacingRight=4;overflow=hidden;points=[[0,0.5],[1,0.5]];portConstraint=eastwest;rotatable=0;whiteSpace=wrap;html=1;labelBackgroundColor=none;fontColor=#1D3557;" vertex="1" parent="ip9N9a8k5Pp6pJVHzamk-21">
          <mxGeometry y="180" width="140" height="30" as="geometry" />
        </mxCell>
        <mxCell id="ip9N9a8k5Pp6pJVHzamk-25" value="Gender" style="text;strokeColor=none;fillColor=none;align=left;verticalAlign=middle;spacingLeft=4;spacingRight=4;overflow=hidden;points=[[0,0.5],[1,0.5]];portConstraint=eastwest;rotatable=0;whiteSpace=wrap;html=1;labelBackgroundColor=none;fontColor=#1D3557;" vertex="1" parent="ip9N9a8k5Pp6pJVHzamk-21">
          <mxGeometry y="210" width="140" height="30" as="geometry" />
        </mxCell>
        <mxCell id="ip9N9a8k5Pp6pJVHzamk-37" value="DOB" style="text;strokeColor=none;fillColor=none;align=left;verticalAlign=middle;spacingLeft=4;spacingRight=4;overflow=hidden;points=[[0,0.5],[1,0.5]];portConstraint=eastwest;rotatable=0;whiteSpace=wrap;html=1;labelBackgroundColor=none;fontColor=#1D3557;" vertex="1" parent="ip9N9a8k5Pp6pJVHzamk-21">
          <mxGeometry y="240" width="140" height="30" as="geometry" />
        </mxCell>
        <mxCell id="ip9N9a8k5Pp6pJVHzamk-29" value="LOCATION" style="swimlane;fontStyle=0;childLayout=stackLayout;horizontal=1;startSize=30;horizontalStack=0;resizeParent=1;resizeParentMax=0;resizeLast=0;collapsible=1;marginBottom=0;whiteSpace=wrap;html=1;labelBackgroundColor=none;fillColor=#A8DADC;strokeColor=#457B9D;fontColor=#1D3557;" vertex="1" parent="1">
          <mxGeometry x="-60" y="-81" width="140" height="210" as="geometry" />
        </mxCell>
        <mxCell id="ip9N9a8k5Pp6pJVHzamk-30" value="&lt;u&gt;&lt;b&gt;LocationID&lt;/b&gt;&lt;/u&gt;" style="text;strokeColor=none;fillColor=none;align=left;verticalAlign=middle;spacingLeft=4;spacingRight=4;overflow=hidden;points=[[0,0.5],[1,0.5]];portConstraint=eastwest;rotatable=0;whiteSpace=wrap;html=1;labelBackgroundColor=none;fontColor=#1D3557;" vertex="1" parent="ip9N9a8k5Pp6pJVHzamk-29">
          <mxGeometry y="30" width="140" height="30" as="geometry" />
        </mxCell>
        <mxCell id="ip9N9a8k5Pp6pJVHzamk-31" value="HomeStreet" style="text;strokeColor=none;fillColor=none;align=left;verticalAlign=middle;spacingLeft=4;spacingRight=4;overflow=hidden;points=[[0,0.5],[1,0.5]];portConstraint=eastwest;rotatable=0;whiteSpace=wrap;html=1;labelBackgroundColor=none;fontColor=#1D3557;" vertex="1" parent="ip9N9a8k5Pp6pJVHzamk-29">
          <mxGeometry y="60" width="140" height="30" as="geometry" />
        </mxCell>
        <mxCell id="ip9N9a8k5Pp6pJVHzamk-32" value="CityProvince" style="text;strokeColor=none;fillColor=none;align=left;verticalAlign=middle;spacingLeft=4;spacingRight=4;overflow=hidden;points=[[0,0.5],[1,0.5]];portConstraint=eastwest;rotatable=0;whiteSpace=wrap;html=1;labelBackgroundColor=none;fontColor=#1D3557;" vertex="1" parent="ip9N9a8k5Pp6pJVHzamk-29">
          <mxGeometry y="90" width="140" height="30" as="geometry" />
        </mxCell>
        <mxCell id="ip9N9a8k5Pp6pJVHzamk-33" value="DistrictTown" style="text;strokeColor=none;fillColor=none;align=left;verticalAlign=middle;spacingLeft=4;spacingRight=4;overflow=hidden;points=[[0,0.5],[1,0.5]];portConstraint=eastwest;rotatable=0;whiteSpace=wrap;html=1;labelBackgroundColor=none;fontColor=#1D3557;" vertex="1" parent="ip9N9a8k5Pp6pJVHzamk-29">
          <mxGeometry y="120" width="140" height="30" as="geometry" />
        </mxCell>
        <mxCell id="ip9N9a8k5Pp6pJVHzamk-34" value="CommuneWard" style="text;strokeColor=none;fillColor=none;align=left;verticalAlign=middle;spacingLeft=4;spacingRight=4;overflow=hidden;points=[[0,0.5],[1,0.5]];portConstraint=eastwest;rotatable=0;whiteSpace=wrap;html=1;labelBackgroundColor=none;fontColor=#1D3557;" vertex="1" parent="ip9N9a8k5Pp6pJVHzamk-29">
          <mxGeometry y="150" width="140" height="30" as="geometry" />
        </mxCell>
        <mxCell id="ip9N9a8k5Pp6pJVHzamk-35" value="ZipCode" style="text;strokeColor=none;fillColor=none;align=left;verticalAlign=middle;spacingLeft=4;spacingRight=4;overflow=hidden;points=[[0,0.5],[1,0.5]];portConstraint=eastwest;rotatable=0;whiteSpace=wrap;html=1;fontStyle=0;labelBackgroundColor=none;fontColor=#1D3557;" vertex="1" parent="ip9N9a8k5Pp6pJVHzamk-29">
          <mxGeometry y="180" width="140" height="30" as="geometry" />
        </mxCell>
        <mxCell id="ip9N9a8k5Pp6pJVHzamk-38" value="WALLET ACOUNT" style="swimlane;fontStyle=0;childLayout=stackLayout;horizontal=1;startSize=30;horizontalStack=0;resizeParent=1;resizeParentMax=0;resizeLast=0;collapsible=1;marginBottom=0;whiteSpace=wrap;html=1;labelBackgroundColor=none;fillColor=#A8DADC;strokeColor=#457B9D;fontColor=#1D3557;" vertex="1" parent="1">
          <mxGeometry x="380" y="-270" width="140" height="180" as="geometry" />
        </mxCell>
        <mxCell id="ip9N9a8k5Pp6pJVHzamk-39" value="&lt;u&gt;&lt;b&gt;AccountID&lt;/b&gt;&lt;/u&gt;" style="text;strokeColor=none;fillColor=none;align=left;verticalAlign=middle;spacingLeft=4;spacingRight=4;overflow=hidden;points=[[0,0.5],[1,0.5]];portConstraint=eastwest;rotatable=0;whiteSpace=wrap;html=1;labelBackgroundColor=none;fontColor=#1D3557;" vertex="1" parent="ip9N9a8k5Pp6pJVHzamk-38">
          <mxGeometry y="30" width="140" height="30" as="geometry" />
        </mxCell>
        <mxCell id="SsWh1Jsw6skmhXWUFT4k-14" value="&lt;span&gt;&lt;span&gt;SecurityID&lt;/span&gt;&lt;/span&gt;" style="text;strokeColor=none;fillColor=none;align=left;verticalAlign=middle;spacingLeft=4;spacingRight=4;overflow=hidden;points=[[0,0.5],[1,0.5]];portConstraint=eastwest;rotatable=0;whiteSpace=wrap;html=1;labelBackgroundColor=none;fontStyle=0;fontColor=#1D3557;" vertex="1" parent="ip9N9a8k5Pp6pJVHzamk-38">
          <mxGeometry y="60" width="140" height="30" as="geometry" />
        </mxCell>
        <mxCell id="SsWh1Jsw6skmhXWUFT4k-70" value="" style="endArrow=none;dashed=1;html=1;rounded=0;strokeColor=#457B9D;fontColor=#1D3557;fillColor=#A8DADC;" edge="1" parent="ip9N9a8k5Pp6pJVHzamk-38">
          <mxGeometry width="50" height="50" relative="1" as="geometry">
            <mxPoint x="5" y="84" as="sourcePoint" />
            <mxPoint x="68" y="84" as="targetPoint" />
          </mxGeometry>
        </mxCell>
        <mxCell id="ip9N9a8k5Pp6pJVHzamk-41" value="BankCardNo" style="text;strokeColor=none;fillColor=none;align=left;verticalAlign=middle;spacingLeft=4;spacingRight=4;overflow=hidden;points=[[0,0.5],[1,0.5]];portConstraint=eastwest;rotatable=0;whiteSpace=wrap;html=1;labelBackgroundColor=none;fontColor=#1D3557;" vertex="1" parent="ip9N9a8k5Pp6pJVHzamk-38">
          <mxGeometry y="90" width="140" height="30" as="geometry" />
        </mxCell>
        <mxCell id="SsWh1Jsw6skmhXWUFT4k-65" value="" style="endArrow=none;dashed=1;html=1;rounded=0;strokeColor=#457B9D;fontColor=#1D3557;fillColor=#A8DADC;" edge="1" parent="ip9N9a8k5Pp6pJVHzamk-38">
          <mxGeometry width="50" height="50" relative="1" as="geometry">
            <mxPoint x="6" y="114.00000000000011" as="sourcePoint" />
            <mxPoint x="69" y="114.00000000000011" as="targetPoint" />
          </mxGeometry>
        </mxCell>
        <mxCell id="ip9N9a8k5Pp6pJVHzamk-40" value="Username" style="text;strokeColor=none;fillColor=none;align=left;verticalAlign=middle;spacingLeft=4;spacingRight=4;overflow=hidden;points=[[0,0.5],[1,0.5]];portConstraint=eastwest;rotatable=0;whiteSpace=wrap;html=1;labelBackgroundColor=none;fontColor=#1D3557;" vertex="1" parent="ip9N9a8k5Pp6pJVHzamk-38">
          <mxGeometry y="120" width="140" height="30" as="geometry" />
        </mxCell>
        <mxCell id="ip9N9a8k5Pp6pJVHzamk-42" value="WalletMoneyDetail" style="text;strokeColor=none;fillColor=none;align=left;verticalAlign=middle;spacingLeft=4;spacingRight=4;overflow=hidden;points=[[0,0.5],[1,0.5]];portConstraint=eastwest;rotatable=0;whiteSpace=wrap;html=1;labelBackgroundColor=none;fontColor=#1D3557;" vertex="1" parent="ip9N9a8k5Pp6pJVHzamk-38">
          <mxGeometry y="150" width="140" height="30" as="geometry" />
        </mxCell>
        <mxCell id="pi3gJOTw6T2ri1ZfQAsP-8" value="&lt;span id=&quot;docs-internal-guid-56d5d2c0-7fff-b9dd-ffef-6942a46c7bc4&quot;&gt;&lt;span style=&quot;background-color: transparent; font-variant-numeric: normal; font-variant-east-asian: normal; vertical-align: baseline;&quot;&gt;&lt;font style=&quot;font-size: 12px;&quot;&gt;TRANSACTION&lt;/font&gt;&lt;/span&gt;&lt;/span&gt;" style="swimlane;fontStyle=0;childLayout=stackLayout;horizontal=1;startSize=30;horizontalStack=0;resizeParent=1;resizeParentMax=0;resizeLast=0;collapsible=1;marginBottom=0;whiteSpace=wrap;html=1;labelBackgroundColor=none;fillColor=#A8DADC;strokeColor=#457B9D;fontColor=#1D3557;" vertex="1" parent="1">
          <mxGeometry x="110" y="-460" width="140" height="240" as="geometry" />
        </mxCell>
        <mxCell id="pi3gJOTw6T2ri1ZfQAsP-9" value="&lt;b&gt;&lt;u&gt;TransID&lt;/u&gt;&lt;/b&gt;" style="text;strokeColor=none;fillColor=none;align=left;verticalAlign=middle;spacingLeft=4;spacingRight=4;overflow=hidden;points=[[0,0.5],[1,0.5]];portConstraint=eastwest;rotatable=0;whiteSpace=wrap;html=1;labelBackgroundColor=none;fontColor=#1D3557;" vertex="1" parent="pi3gJOTw6T2ri1ZfQAsP-8">
          <mxGeometry y="30" width="140" height="30" as="geometry" />
        </mxCell>
        <mxCell id="pi3gJOTw6T2ri1ZfQAsP-14" value="AccountID" style="text;strokeColor=none;fillColor=none;align=left;verticalAlign=middle;spacingLeft=4;spacingRight=4;overflow=hidden;points=[[0,0.5],[1,0.5]];portConstraint=eastwest;rotatable=0;whiteSpace=wrap;html=1;labelBackgroundColor=none;fontColor=#1D3557;" vertex="1" parent="pi3gJOTw6T2ri1ZfQAsP-8">
          <mxGeometry y="60" width="140" height="30" as="geometry" />
        </mxCell>
        <mxCell id="SsWh1Jsw6skmhXWUFT4k-64" value="" style="endArrow=none;dashed=1;html=1;rounded=0;strokeColor=#457B9D;fontColor=#1D3557;fillColor=#A8DADC;" edge="1" parent="pi3gJOTw6T2ri1ZfQAsP-8">
          <mxGeometry width="50" height="50" relative="1" as="geometry">
            <mxPoint x="5" y="83" as="sourcePoint" />
            <mxPoint x="68" y="83" as="targetPoint" />
          </mxGeometry>
        </mxCell>
        <mxCell id="pi3gJOTw6T2ri1ZfQAsP-25" value="CooperateID" style="text;strokeColor=none;fillColor=none;align=left;verticalAlign=middle;spacingLeft=4;spacingRight=4;overflow=hidden;points=[[0,0.5],[1,0.5]];portConstraint=eastwest;rotatable=0;whiteSpace=wrap;html=1;labelBackgroundColor=none;fontColor=#1D3557;" vertex="1" parent="pi3gJOTw6T2ri1ZfQAsP-8">
          <mxGeometry y="90" width="140" height="30" as="geometry" />
        </mxCell>
        <mxCell id="SsWh1Jsw6skmhXWUFT4k-63" value="" style="endArrow=none;dashed=1;html=1;rounded=0;strokeColor=#457B9D;fontColor=#1D3557;fillColor=#A8DADC;" edge="1" parent="pi3gJOTw6T2ri1ZfQAsP-8">
          <mxGeometry width="50" height="50" relative="1" as="geometry">
            <mxPoint x="9" y="112" as="sourcePoint" />
            <mxPoint x="72" y="112" as="targetPoint" />
          </mxGeometry>
        </mxCell>
        <mxCell id="pi3gJOTw6T2ri1ZfQAsP-13" value="TransType(...)" style="text;strokeColor=none;fillColor=none;align=left;verticalAlign=middle;spacingLeft=4;spacingRight=4;overflow=hidden;points=[[0,0.5],[1,0.5]];portConstraint=eastwest;rotatable=0;whiteSpace=wrap;html=1;labelBackgroundColor=none;fontColor=#1D3557;" vertex="1" parent="pi3gJOTw6T2ri1ZfQAsP-8">
          <mxGeometry y="120" width="140" height="30" as="geometry" />
        </mxCell>
        <mxCell id="pi3gJOTw6T2ri1ZfQAsP-11" value="OrderDate" style="text;strokeColor=none;fillColor=none;align=left;verticalAlign=middle;spacingLeft=4;spacingRight=4;overflow=hidden;points=[[0,0.5],[1,0.5]];portConstraint=eastwest;rotatable=0;whiteSpace=wrap;html=1;labelBackgroundColor=none;fontColor=#1D3557;" vertex="1" parent="pi3gJOTw6T2ri1ZfQAsP-8">
          <mxGeometry y="150" width="140" height="30" as="geometry" />
        </mxCell>
        <mxCell id="pi3gJOTw6T2ri1ZfQAsP-12" value="OrderStatus" style="text;strokeColor=none;fillColor=none;align=left;verticalAlign=middle;spacingLeft=4;spacingRight=4;overflow=hidden;points=[[0,0.5],[1,0.5]];portConstraint=eastwest;rotatable=0;whiteSpace=wrap;html=1;labelBackgroundColor=none;fontColor=#1D3557;" vertex="1" parent="pi3gJOTw6T2ri1ZfQAsP-8">
          <mxGeometry y="180" width="140" height="30" as="geometry" />
        </mxCell>
        <mxCell id="pi3gJOTw6T2ri1ZfQAsP-24" value="OrderMessage" style="text;strokeColor=none;fillColor=none;align=left;verticalAlign=middle;spacingLeft=4;spacingRight=4;overflow=hidden;points=[[0,0.5],[1,0.5]];portConstraint=eastwest;rotatable=0;whiteSpace=wrap;html=1;labelBackgroundColor=none;fontColor=#1D3557;" vertex="1" parent="pi3gJOTw6T2ri1ZfQAsP-8">
          <mxGeometry y="210" width="140" height="30" as="geometry" />
        </mxCell>
        <mxCell id="pi3gJOTw6T2ri1ZfQAsP-15" style="text;strokeColor=none;fillColor=none;align=left;verticalAlign=middle;spacingLeft=4;spacingRight=4;overflow=hidden;points=[[0,0.5],[1,0.5]];portConstraint=eastwest;rotatable=0;whiteSpace=wrap;html=1;labelBackgroundColor=none;fontColor=#1D3557;" vertex="1" parent="pi3gJOTw6T2ri1ZfQAsP-8">
          <mxGeometry y="240" width="140" as="geometry" />
        </mxCell>
        <mxCell id="pi3gJOTw6T2ri1ZfQAsP-26" value="&lt;span id=&quot;docs-internal-guid-98bb5ddb-7fff-0b68-6ff6-bffaebeed9c4&quot;&gt;&lt;span style=&quot;background-color: transparent; font-variant-numeric: normal; font-variant-east-asian: normal; vertical-align: baseline;&quot;&gt;&lt;font style=&quot;font-size: 12px;&quot;&gt;LUCKYWALLET&lt;/font&gt;&lt;/span&gt;&lt;/span&gt;" style="swimlane;fontStyle=0;childLayout=stackLayout;horizontal=1;startSize=30;horizontalStack=0;resizeParent=1;resizeParentMax=0;resizeLast=0;collapsible=1;marginBottom=0;whiteSpace=wrap;html=1;labelBackgroundColor=none;fillColor=#A8DADC;strokeColor=#457B9D;fontColor=#1D3557;" vertex="1" parent="1">
          <mxGeometry x="380" y="-460" width="140" height="120" as="geometry" />
        </mxCell>
        <mxCell id="pi3gJOTw6T2ri1ZfQAsP-27" value="AccountID" style="text;strokeColor=none;fillColor=none;align=left;verticalAlign=middle;spacingLeft=4;spacingRight=4;overflow=hidden;points=[[0,0.5],[1,0.5]];portConstraint=eastwest;rotatable=0;whiteSpace=wrap;html=1;fontStyle=5;labelBackgroundColor=none;fontColor=#1D3557;" vertex="1" parent="pi3gJOTw6T2ri1ZfQAsP-26">
          <mxGeometry y="30" width="140" height="30" as="geometry" />
        </mxCell>
        <mxCell id="pi3gJOTw6T2ri1ZfQAsP-28" value="LuckyWalletMoneyDetail" style="text;strokeColor=none;fillColor=none;align=left;verticalAlign=middle;spacingLeft=4;spacingRight=4;overflow=hidden;points=[[0,0.5],[1,0.5]];portConstraint=eastwest;rotatable=0;whiteSpace=wrap;html=1;labelBackgroundColor=none;fontColor=#1D3557;" vertex="1" parent="pi3gJOTw6T2ri1ZfQAsP-26">
          <mxGeometry y="60" width="140" height="30" as="geometry" />
        </mxCell>
        <mxCell id="pi3gJOTw6T2ri1ZfQAsP-29" value="InterestRate" style="text;strokeColor=none;fillColor=none;align=left;verticalAlign=middle;spacingLeft=4;spacingRight=4;overflow=hidden;points=[[0,0.5],[1,0.5]];portConstraint=eastwest;rotatable=0;whiteSpace=wrap;html=1;labelBackgroundColor=none;fontColor=#1D3557;" vertex="1" parent="pi3gJOTw6T2ri1ZfQAsP-26">
          <mxGeometry y="90" width="140" height="30" as="geometry" />
        </mxCell>
        <mxCell id="pi3gJOTw6T2ri1ZfQAsP-30" value="COMPANYPARTNER" style="swimlane;fontStyle=0;childLayout=stackLayout;horizontal=1;startSize=30;horizontalStack=0;resizeParent=1;resizeParentMax=0;resizeLast=0;collapsible=1;marginBottom=0;whiteSpace=wrap;html=1;labelBackgroundColor=none;fillColor=#A8DADC;strokeColor=#457B9D;fontColor=#1D3557;" vertex="1" parent="1">
          <mxGeometry x="-424" y="-455" width="140" height="180" as="geometry" />
        </mxCell>
        <mxCell id="pi3gJOTw6T2ri1ZfQAsP-31" value="CompanyID" style="text;strokeColor=none;fillColor=none;align=left;verticalAlign=middle;spacingLeft=4;spacingRight=4;overflow=hidden;points=[[0,0.5],[1,0.5]];portConstraint=eastwest;rotatable=0;whiteSpace=wrap;html=1;fontStyle=5;labelBackgroundColor=none;fontColor=#1D3557;" vertex="1" parent="pi3gJOTw6T2ri1ZfQAsP-30">
          <mxGeometry y="30" width="140" height="30" as="geometry" />
        </mxCell>
        <mxCell id="pi3gJOTw6T2ri1ZfQAsP-32" value="CompanyName" style="text;strokeColor=none;fillColor=none;align=left;verticalAlign=middle;spacingLeft=4;spacingRight=4;overflow=hidden;points=[[0,0.5],[1,0.5]];portConstraint=eastwest;rotatable=0;whiteSpace=wrap;html=1;labelBackgroundColor=none;fontColor=#1D3557;" vertex="1" parent="pi3gJOTw6T2ri1ZfQAsP-30">
          <mxGeometry y="60" width="140" height="30" as="geometry" />
        </mxCell>
        <mxCell id="pi3gJOTw6T2ri1ZfQAsP-33" value="Categories" style="text;strokeColor=none;fillColor=none;align=left;verticalAlign=middle;spacingLeft=4;spacingRight=4;overflow=hidden;points=[[0,0.5],[1,0.5]];portConstraint=eastwest;rotatable=0;whiteSpace=wrap;html=1;labelBackgroundColor=none;fontColor=#1D3557;" vertex="1" parent="pi3gJOTw6T2ri1ZfQAsP-30">
          <mxGeometry y="90" width="140" height="30" as="geometry" />
        </mxCell>
        <mxCell id="pi3gJOTw6T2ri1ZfQAsP-35" value="LocationID" style="text;strokeColor=none;fillColor=none;align=left;verticalAlign=middle;spacingLeft=4;spacingRight=4;overflow=hidden;points=[[0,0.5],[1,0.5]];portConstraint=eastwest;rotatable=0;whiteSpace=wrap;html=1;labelBackgroundColor=none;fontColor=#1D3557;" vertex="1" parent="pi3gJOTw6T2ri1ZfQAsP-30">
          <mxGeometry y="120" width="140" height="30" as="geometry" />
        </mxCell>
        <mxCell id="SsWh1Jsw6skmhXWUFT4k-76" value="" style="endArrow=none;dashed=1;html=1;rounded=0;strokeColor=#457B9D;fontColor=#1D3557;fillColor=#A8DADC;" edge="1" parent="pi3gJOTw6T2ri1ZfQAsP-30">
          <mxGeometry width="50" height="50" relative="1" as="geometry">
            <mxPoint x="6.000000000000114" y="145" as="sourcePoint" />
            <mxPoint x="69" y="145" as="targetPoint" />
          </mxGeometry>
        </mxCell>
        <mxCell id="pi3gJOTw6T2ri1ZfQAsP-38" value="CooperateID" style="text;strokeColor=none;fillColor=none;align=left;verticalAlign=middle;spacingLeft=4;spacingRight=4;overflow=hidden;points=[[0,0.5],[1,0.5]];portConstraint=eastwest;rotatable=0;whiteSpace=wrap;html=1;labelBackgroundColor=none;fontColor=#1D3557;" vertex="1" parent="pi3gJOTw6T2ri1ZfQAsP-30">
          <mxGeometry y="150" width="140" height="30" as="geometry" />
        </mxCell>
        <mxCell id="SsWh1Jsw6skmhXWUFT4k-75" value="" style="endArrow=none;dashed=1;html=1;rounded=0;strokeColor=#457B9D;fontColor=#1D3557;fillColor=#A8DADC;" edge="1" parent="pi3gJOTw6T2ri1ZfQAsP-30">
          <mxGeometry width="50" height="50" relative="1" as="geometry">
            <mxPoint x="8" y="171" as="sourcePoint" />
            <mxPoint x="71" y="171" as="targetPoint" />
          </mxGeometry>
        </mxCell>
        <mxCell id="SsWh1Jsw6skmhXWUFT4k-10" style="edgeStyle=orthogonalEdgeStyle;rounded=0;orthogonalLoop=1;jettySize=auto;html=1;exitX=1;exitY=0.5;exitDx=0;exitDy=0;entryX=0;entryY=0.5;entryDx=0;entryDy=0;labelBackgroundColor=none;strokeColor=#457B9D;fontColor=default;startArrow=ERmandOne;startFill=0;endArrow=ERmandOne;endFill=0;" edge="1" parent="1" source="pi3gJOTw6T2ri1ZfQAsP-38" target="Y2-m1TY2lKCQPCWbgqXC-2">
          <mxGeometry relative="1" as="geometry">
            <Array as="points">
              <mxPoint x="-264" y="-290" />
              <mxPoint x="-264" y="-408" />
            </Array>
          </mxGeometry>
        </mxCell>
        <mxCell id="SsWh1Jsw6skmhXWUFT4k-12" style="edgeStyle=orthogonalEdgeStyle;rounded=0;orthogonalLoop=1;jettySize=auto;html=1;exitX=0;exitY=0.5;exitDx=0;exitDy=0;startArrow=ERmandOne;startFill=0;endArrow=ERmandOne;endFill=0;labelBackgroundColor=none;strokeColor=#457B9D;fontColor=default;entryX=0;entryY=0.5;entryDx=0;entryDy=0;" edge="1" parent="1" source="ip9N9a8k5Pp6pJVHzamk-27" target="ip9N9a8k5Pp6pJVHzamk-40">
          <mxGeometry relative="1" as="geometry">
            <mxPoint x="520" y="-160" as="targetPoint" />
            <Array as="points">
              <mxPoint x="358" y="19" />
              <mxPoint x="358" y="-135" />
            </Array>
          </mxGeometry>
        </mxCell>
        <mxCell id="SsWh1Jsw6skmhXWUFT4k-18" style="edgeStyle=orthogonalEdgeStyle;rounded=0;orthogonalLoop=1;jettySize=auto;html=1;exitX=0;exitY=0.5;exitDx=0;exitDy=0;entryX=0;entryY=0.5;entryDx=0;entryDy=0;endArrow=ERzeroToOne;endFill=0;startArrow=ERmandOne;startFill=0;labelBackgroundColor=none;strokeColor=#457B9D;fontColor=default;" edge="1" parent="1" source="ip9N9a8k5Pp6pJVHzamk-39" target="pi3gJOTw6T2ri1ZfQAsP-27">
          <mxGeometry relative="1" as="geometry" />
        </mxCell>
        <mxCell id="SsWh1Jsw6skmhXWUFT4k-19" style="edgeStyle=orthogonalEdgeStyle;rounded=0;orthogonalLoop=1;jettySize=auto;html=1;exitX=1;exitY=0.5;exitDx=0;exitDy=0;entryX=-0.007;entryY=0.94;entryDx=0;entryDy=0;entryPerimeter=0;startArrow=ERzeroToMany;startFill=0;endArrow=ERmandOne;endFill=0;labelBackgroundColor=none;strokeColor=#457B9D;fontColor=default;" edge="1" parent="1" source="pi3gJOTw6T2ri1ZfQAsP-14" target="ip9N9a8k5Pp6pJVHzamk-39">
          <mxGeometry relative="1" as="geometry">
            <Array as="points">
              <mxPoint x="290" y="-385" />
              <mxPoint x="290" y="-212" />
            </Array>
          </mxGeometry>
        </mxCell>
        <mxCell id="SsWh1Jsw6skmhXWUFT4k-22" style="edgeStyle=orthogonalEdgeStyle;rounded=0;orthogonalLoop=1;jettySize=auto;html=1;exitX=1;exitY=0.5;exitDx=0;exitDy=0;entryX=0;entryY=0.5;entryDx=0;entryDy=0;startArrow=ERmandOne;startFill=0;endArrow=ERmandOne;endFill=0;labelBackgroundColor=none;strokeColor=#457B9D;fontColor=default;" edge="1" parent="1" source="SsWh1Jsw6skmhXWUFT4k-14" target="ip9N9a8k5Pp6pJVHzamk-8">
          <mxGeometry relative="1" as="geometry">
            <Array as="points">
              <mxPoint x="578" y="-195" />
              <mxPoint x="578" y="-225" />
            </Array>
          </mxGeometry>
        </mxCell>
        <mxCell id="SsWh1Jsw6skmhXWUFT4k-27" value="&lt;span id=&quot;docs-internal-guid-98bb5ddb-7fff-0b68-6ff6-bffaebeed9c4&quot;&gt;&lt;span style=&quot;background-color: transparent; font-variant-numeric: normal; font-variant-east-asian: normal; vertical-align: baseline;&quot;&gt;&lt;font style=&quot;font-size: 12px;&quot;&gt;TRANSWALLET&lt;/font&gt;&lt;/span&gt;&lt;/span&gt;" style="swimlane;fontStyle=0;childLayout=stackLayout;horizontal=1;startSize=30;horizontalStack=0;resizeParent=1;resizeParentMax=0;resizeLast=0;collapsible=1;marginBottom=0;whiteSpace=wrap;html=1;labelBackgroundColor=none;fillColor=#A8DADC;strokeColor=#457B9D;fontColor=#1D3557;" vertex="1" parent="1">
          <mxGeometry x="120" y="-650" width="140" height="120" as="geometry" />
        </mxCell>
        <mxCell id="SsWh1Jsw6skmhXWUFT4k-43" value="&lt;b&gt;&lt;u&gt;TransID&lt;/u&gt;&lt;/b&gt;" style="text;strokeColor=none;fillColor=none;align=left;verticalAlign=middle;spacingLeft=4;spacingRight=4;overflow=hidden;points=[[0,0.5],[1,0.5]];portConstraint=eastwest;rotatable=0;whiteSpace=wrap;html=1;labelBackgroundColor=none;fontColor=#1D3557;" vertex="1" parent="SsWh1Jsw6skmhXWUFT4k-27">
          <mxGeometry y="30" width="140" height="30" as="geometry" />
        </mxCell>
        <mxCell id="SsWh1Jsw6skmhXWUFT4k-59" value="AccountID" style="text;strokeColor=none;fillColor=none;align=left;verticalAlign=middle;spacingLeft=4;spacingRight=4;overflow=hidden;points=[[0,0.5],[1,0.5]];portConstraint=eastwest;rotatable=0;whiteSpace=wrap;html=1;fontStyle=5;labelBackgroundColor=none;fontColor=#1D3557;" vertex="1" parent="SsWh1Jsw6skmhXWUFT4k-27">
          <mxGeometry y="60" width="140" height="30" as="geometry" />
        </mxCell>
        <mxCell id="SsWh1Jsw6skmhXWUFT4k-30" value="Volume" style="text;strokeColor=none;fillColor=none;align=left;verticalAlign=middle;spacingLeft=4;spacingRight=4;overflow=hidden;points=[[0,0.5],[1,0.5]];portConstraint=eastwest;rotatable=0;whiteSpace=wrap;html=1;labelBackgroundColor=none;fontColor=#1D3557;" vertex="1" parent="SsWh1Jsw6skmhXWUFT4k-27">
          <mxGeometry y="90" width="140" height="30" as="geometry" />
        </mxCell>
        <mxCell id="SsWh1Jsw6skmhXWUFT4k-31" value="&lt;span id=&quot;docs-internal-guid-98bb5ddb-7fff-0b68-6ff6-bffaebeed9c4&quot;&gt;&lt;span style=&quot;background-color: transparent; font-variant-numeric: normal; font-variant-east-asian: normal; vertical-align: baseline;&quot;&gt;&lt;font style=&quot;font-size: 12px;&quot;&gt;TRANSLUCKYWALLET&lt;/font&gt;&lt;/span&gt;&lt;/span&gt;" style="swimlane;fontStyle=0;childLayout=stackLayout;horizontal=1;startSize=30;horizontalStack=0;resizeParent=1;resizeParentMax=0;resizeLast=0;collapsible=1;marginBottom=0;whiteSpace=wrap;html=1;labelBackgroundColor=none;fillColor=#A8DADC;strokeColor=#457B9D;fontColor=#1D3557;" vertex="1" parent="1">
          <mxGeometry x="280" y="-650" width="140" height="120" as="geometry" />
        </mxCell>
        <mxCell id="SsWh1Jsw6skmhXWUFT4k-44" value="&lt;b&gt;&lt;u&gt;TransID&lt;/u&gt;&lt;/b&gt;" style="text;strokeColor=none;fillColor=none;align=left;verticalAlign=middle;spacingLeft=4;spacingRight=4;overflow=hidden;points=[[0,0.5],[1,0.5]];portConstraint=eastwest;rotatable=0;whiteSpace=wrap;html=1;labelBackgroundColor=none;fontColor=#1D3557;" vertex="1" parent="SsWh1Jsw6skmhXWUFT4k-31">
          <mxGeometry y="30" width="140" height="30" as="geometry" />
        </mxCell>
        <mxCell id="SsWh1Jsw6skmhXWUFT4k-58" value="AccountID" style="text;strokeColor=none;fillColor=none;align=left;verticalAlign=middle;spacingLeft=4;spacingRight=4;overflow=hidden;points=[[0,0.5],[1,0.5]];portConstraint=eastwest;rotatable=0;whiteSpace=wrap;html=1;fontStyle=5;labelBackgroundColor=none;fontColor=#1D3557;" vertex="1" parent="SsWh1Jsw6skmhXWUFT4k-31">
          <mxGeometry y="60" width="140" height="30" as="geometry" />
        </mxCell>
        <mxCell id="SsWh1Jsw6skmhXWUFT4k-34" value="Volume" style="text;strokeColor=none;fillColor=none;align=left;verticalAlign=middle;spacingLeft=4;spacingRight=4;overflow=hidden;points=[[0,0.5],[1,0.5]];portConstraint=eastwest;rotatable=0;whiteSpace=wrap;html=1;labelBackgroundColor=none;fontColor=#1D3557;" vertex="1" parent="SsWh1Jsw6skmhXWUFT4k-31">
          <mxGeometry y="90" width="140" height="30" as="geometry" />
        </mxCell>
        <mxCell id="SsWh1Jsw6skmhXWUFT4k-35" value="&lt;span id=&quot;docs-internal-guid-98bb5ddb-7fff-0b68-6ff6-bffaebeed9c4&quot;&gt;&lt;span style=&quot;background-color: transparent; font-variant-numeric: normal; font-variant-east-asian: normal; vertical-align: baseline;&quot;&gt;&lt;font style=&quot;font-size: 12px;&quot;&gt;TRANSBANK&lt;/font&gt;&lt;/span&gt;&lt;/span&gt;" style="swimlane;fontStyle=0;childLayout=stackLayout;horizontal=1;startSize=30;horizontalStack=0;resizeParent=1;resizeParentMax=0;resizeLast=0;collapsible=1;marginBottom=0;whiteSpace=wrap;html=1;labelBackgroundColor=none;fillColor=#A8DADC;strokeColor=#457B9D;fontColor=#1D3557;" vertex="1" parent="1">
          <mxGeometry x="-40" y="-650" width="140" height="120" as="geometry" />
        </mxCell>
        <mxCell id="SsWh1Jsw6skmhXWUFT4k-42" value="&lt;b&gt;&lt;u&gt;TransID&lt;/u&gt;&lt;/b&gt;" style="text;strokeColor=none;fillColor=none;align=left;verticalAlign=middle;spacingLeft=4;spacingRight=4;overflow=hidden;points=[[0,0.5],[1,0.5]];portConstraint=eastwest;rotatable=0;whiteSpace=wrap;html=1;labelBackgroundColor=none;fontColor=#1D3557;" vertex="1" parent="SsWh1Jsw6skmhXWUFT4k-35">
          <mxGeometry y="30" width="140" height="30" as="geometry" />
        </mxCell>
        <mxCell id="SsWh1Jsw6skmhXWUFT4k-57" value="BankCardNo" style="text;strokeColor=none;fillColor=none;align=left;verticalAlign=middle;spacingLeft=4;spacingRight=4;overflow=hidden;points=[[0,0.5],[1,0.5]];portConstraint=eastwest;rotatable=0;whiteSpace=wrap;html=1;labelBackgroundColor=none;fontColor=#1D3557;fontStyle=5" vertex="1" parent="SsWh1Jsw6skmhXWUFT4k-35">
          <mxGeometry y="60" width="140" height="30" as="geometry" />
        </mxCell>
        <mxCell id="SsWh1Jsw6skmhXWUFT4k-37" value="Volume" style="text;strokeColor=none;fillColor=none;align=left;verticalAlign=middle;spacingLeft=4;spacingRight=4;overflow=hidden;points=[[0,0.5],[1,0.5]];portConstraint=eastwest;rotatable=0;whiteSpace=wrap;html=1;labelBackgroundColor=none;fontColor=#1D3557;" vertex="1" parent="SsWh1Jsw6skmhXWUFT4k-35">
          <mxGeometry y="90" width="140" height="30" as="geometry" />
        </mxCell>
        <mxCell id="Gq5k7xk_nXGyEZdJNLc5-9" style="edgeStyle=orthogonalEdgeStyle;rounded=0;orthogonalLoop=1;jettySize=auto;html=1;exitX=0;exitY=0.5;exitDx=0;exitDy=0;entryX=1;entryY=0.5;entryDx=0;entryDy=0;labelBackgroundColor=none;strokeColor=#457B9D;fontColor=default;endArrow=ERmandOne;endFill=0;startArrow=ERoneToMany;startFill=0;" edge="1" parent="1" source="Y2-m1TY2lKCQPCWbgqXC-11" target="Y2-m1TY2lKCQPCWbgqXC-6">
          <mxGeometry relative="1" as="geometry" />
        </mxCell>
        <mxCell id="Gq5k7xk_nXGyEZdJNLc5-11" value="" style="fontSize=12;html=1;endArrow=ERoneToMany;startArrow=ERmandOne;rounded=0;exitX=0;exitY=0.5;exitDx=0;exitDy=0;entryX=1;entryY=0.5;entryDx=0;entryDy=0;labelBackgroundColor=none;strokeColor=#457B9D;fontColor=default;edgeStyle=orthogonalEdgeStyle;" edge="1" parent="1" source="ip9N9a8k5Pp6pJVHzamk-28" target="2KepZhN_-aNy6SNeq9I4-4">
          <mxGeometry width="100" height="100" relative="1" as="geometry">
            <mxPoint x="490" y="330" as="sourcePoint" />
            <mxPoint x="590" y="230" as="targetPoint" />
          </mxGeometry>
        </mxCell>
        <mxCell id="Gq5k7xk_nXGyEZdJNLc5-13" value="" style="edgeStyle=orthogonalEdgeStyle;fontSize=12;html=1;endArrow=ERmandOne;startArrow=ERmandOne;rounded=0;entryX=0;entryY=0.5;entryDx=0;entryDy=0;exitX=1;exitY=0.5;exitDx=0;exitDy=0;labelBackgroundColor=none;strokeColor=#457B9D;fontColor=default;" edge="1" parent="1" source="ip9N9a8k5Pp6pJVHzamk-30" target="SsWh1Jsw6skmhXWUFT4k-5">
          <mxGeometry width="100" height="100" relative="1" as="geometry">
            <mxPoint x="200" y="460" as="sourcePoint" />
            <mxPoint x="310" y="270" as="targetPoint" />
            <Array as="points">
              <mxPoint x="133" y="-36" />
              <mxPoint x="133" y="14" />
            </Array>
          </mxGeometry>
        </mxCell>
        <mxCell id="Gq5k7xk_nXGyEZdJNLc5-14" value="" style="edgeStyle=orthogonalEdgeStyle;fontSize=12;html=1;endArrow=ERmandOne;startArrow=ERmandOne;rounded=0;entryX=1;entryY=0.5;entryDx=0;entryDy=0;exitX=-0.007;exitY=0.207;exitDx=0;exitDy=0;endFill=0;labelBackgroundColor=none;strokeColor=#457B9D;fontColor=default;exitPerimeter=0;" edge="1" parent="1" source="ip9N9a8k5Pp6pJVHzamk-30" target="SsWh1Jsw6skmhXWUFT4k-23">
          <mxGeometry width="100" height="100" relative="1" as="geometry">
            <mxPoint x="-150" y="230" as="sourcePoint" />
            <mxPoint x="-50" y="130" as="targetPoint" />
          </mxGeometry>
        </mxCell>
        <mxCell id="Gq5k7xk_nXGyEZdJNLc5-18" value="" style="edgeStyle=orthogonalEdgeStyle;fontSize=12;html=1;endArrow=ERmandOne;startArrow=ERmandOne;rounded=0;entryX=0;entryY=0.5;entryDx=0;entryDy=0;exitX=0;exitY=0.5;exitDx=0;exitDy=0;endFill=0;labelBackgroundColor=none;strokeColor=#457B9D;fontColor=default;" edge="1" parent="1" source="ip9N9a8k5Pp6pJVHzamk-30" target="pi3gJOTw6T2ri1ZfQAsP-35">
          <mxGeometry width="100" height="100" relative="1" as="geometry">
            <mxPoint x="60" y="355" as="sourcePoint" />
            <mxPoint x="-50" y="140" as="targetPoint" />
            <Array as="points">
              <mxPoint x="-134" y="-36" />
              <mxPoint x="-134" y="-10" />
              <mxPoint x="-481" y="-10" />
              <mxPoint x="-481" y="-320" />
            </Array>
          </mxGeometry>
        </mxCell>
        <mxCell id="Gq5k7xk_nXGyEZdJNLc5-20" value="" style="edgeStyle=orthogonalEdgeStyle;fontSize=12;html=1;endArrow=ERoneToMany;startArrow=ERmandOne;rounded=0;entryX=0;entryY=0.5;entryDx=0;entryDy=0;exitX=1;exitY=0.5;exitDx=0;exitDy=0;labelBackgroundColor=none;strokeColor=#457B9D;fontColor=default;" edge="1" parent="1" source="Y2-m1TY2lKCQPCWbgqXC-8" target="Y2-m1TY2lKCQPCWbgqXC-4">
          <mxGeometry width="100" height="100" relative="1" as="geometry">
            <mxPoint x="-194" y="-140" as="sourcePoint" />
            <mxPoint x="-94" y="-240" as="targetPoint" />
            <Array as="points">
              <mxPoint x="-252" y="-105" />
              <mxPoint x="-252" y="-348" />
            </Array>
          </mxGeometry>
        </mxCell>
        <mxCell id="SsWh1Jsw6skmhXWUFT4k-46" value="" style="endArrow=classic;html=1;rounded=0;strokeColor=#457B9D;fontColor=default;fillColor=#A8DADC;exitX=0;exitY=0.5;exitDx=0;exitDy=0;labelBackgroundColor=none;" edge="1" parent="1" source="SsWh1Jsw6skmhXWUFT4k-54" target="SsWh1Jsw6skmhXWUFT4k-35">
          <mxGeometry width="50" height="50" relative="1" as="geometry">
            <mxPoint x="200" y="-480" as="sourcePoint" />
            <mxPoint x="150" y="-250" as="targetPoint" />
            <Array as="points">
              <mxPoint x="30" y="-480" />
            </Array>
          </mxGeometry>
        </mxCell>
        <mxCell id="SsWh1Jsw6skmhXWUFT4k-47" value="" style="endArrow=classic;html=1;rounded=0;strokeColor=#457B9D;fontColor=default;fillColor=#A8DADC;entryX=0.5;entryY=0.992;entryDx=0;entryDy=0;entryPerimeter=0;labelBackgroundColor=none;" edge="1" parent="1" target="SsWh1Jsw6skmhXWUFT4k-30">
          <mxGeometry width="50" height="50" relative="1" as="geometry">
            <mxPoint x="190" y="-480" as="sourcePoint" />
            <mxPoint x="150" y="-250" as="targetPoint" />
          </mxGeometry>
        </mxCell>
        <mxCell id="SsWh1Jsw6skmhXWUFT4k-48" value="" style="endArrow=classic;html=1;rounded=0;strokeColor=#457B9D;fontColor=default;fillColor=#A8DADC;entryX=0.579;entryY=1.115;entryDx=0;entryDy=0;entryPerimeter=0;startArrow=none;exitX=1;exitY=0.5;exitDx=0;exitDy=0;labelBackgroundColor=none;" edge="1" parent="1" source="SsWh1Jsw6skmhXWUFT4k-51" target="SsWh1Jsw6skmhXWUFT4k-34">
          <mxGeometry width="50" height="50" relative="1" as="geometry">
            <mxPoint x="190" y="-480" as="sourcePoint" />
            <mxPoint x="279.9999999999998" y="-550" as="targetPoint" />
            <Array as="points">
              <mxPoint x="360" y="-480" />
            </Array>
          </mxGeometry>
        </mxCell>
        <mxCell id="SsWh1Jsw6skmhXWUFT4k-50" style="edgeStyle=orthogonalEdgeStyle;rounded=0;orthogonalLoop=1;jettySize=auto;html=1;exitX=1;exitY=0.5;exitDx=0;exitDy=0;strokeColor=#457B9D;fontColor=default;fillColor=#A8DADC;entryX=0.5;entryY=1;entryDx=0;entryDy=0;endArrow=none;endFill=0;shape=link;labelBackgroundColor=none;" edge="1" parent="1" source="pi3gJOTw6T2ri1ZfQAsP-13" target="SsWh1Jsw6skmhXWUFT4k-51">
          <mxGeometry relative="1" as="geometry">
            <mxPoint x="310" y="-480" as="targetPoint" />
          </mxGeometry>
        </mxCell>
        <mxCell id="SsWh1Jsw6skmhXWUFT4k-51" value="" style="ellipse;whiteSpace=wrap;html=1;aspect=fixed;strokeColor=#457B9D;fontColor=#1D3557;fillColor=#A8DADC;labelBackgroundColor=none;" vertex="1" parent="1">
          <mxGeometry x="290" y="-500" width="40" height="40" as="geometry" />
        </mxCell>
        <mxCell id="SsWh1Jsw6skmhXWUFT4k-53" value="" style="endArrow=none;html=1;rounded=0;strokeColor=#457B9D;fontColor=default;fillColor=#A8DADC;entryX=0;entryY=0.5;entryDx=0;entryDy=0;labelBackgroundColor=none;" edge="1" parent="1" target="SsWh1Jsw6skmhXWUFT4k-51">
          <mxGeometry width="50" height="50" relative="1" as="geometry">
            <mxPoint x="190" y="-480" as="sourcePoint" />
            <mxPoint x="361.05999999999995" y="-556.5500000000002" as="targetPoint" />
            <Array as="points" />
          </mxGeometry>
        </mxCell>
        <mxCell id="SsWh1Jsw6skmhXWUFT4k-54" value="d" style="text;html=1;strokeColor=none;fillColor=none;align=center;verticalAlign=middle;whiteSpace=wrap;rounded=0;fontColor=#1D3557;fontSize=19;labelBackgroundColor=none;" vertex="1" parent="1">
          <mxGeometry x="295" y="-490" width="30" height="20" as="geometry" />
        </mxCell>
        <mxCell id="SsWh1Jsw6skmhXWUFT4k-56" style="edgeStyle=orthogonalEdgeStyle;rounded=0;orthogonalLoop=1;jettySize=auto;html=1;exitX=1;exitY=0.5;exitDx=0;exitDy=0;entryX=0.296;entryY=1.115;entryDx=0;entryDy=0;entryPerimeter=0;strokeColor=#457B9D;fontSize=19;fontColor=default;endArrow=ERzeroToMany;endFill=0;fillColor=#A8DADC;startArrow=ERmandOne;startFill=0;labelBackgroundColor=none;" edge="1" parent="1" source="Y2-m1TY2lKCQPCWbgqXC-11" target="SsWh1Jsw6skmhXWUFT4k-37">
          <mxGeometry relative="1" as="geometry">
            <Array as="points">
              <mxPoint x="1" y="-135" />
            </Array>
          </mxGeometry>
        </mxCell>
        <mxCell id="SsWh1Jsw6skmhXWUFT4k-60" style="edgeStyle=orthogonalEdgeStyle;rounded=0;orthogonalLoop=1;jettySize=auto;html=1;exitX=1;exitY=0.5;exitDx=0;exitDy=0;entryX=0.25;entryY=0;entryDx=0;entryDy=0;strokeColor=#457B9D;fontSize=19;fontColor=default;endArrow=ERzeroToMany;endFill=0;fillColor=#A8DADC;startArrow=ERmandOne;startFill=0;labelBackgroundColor=none;" edge="1" parent="1" source="pi3gJOTw6T2ri1ZfQAsP-27" target="SsWh1Jsw6skmhXWUFT4k-31">
          <mxGeometry relative="1" as="geometry" />
        </mxCell>
        <mxCell id="SsWh1Jsw6skmhXWUFT4k-61" style="edgeStyle=orthogonalEdgeStyle;rounded=0;orthogonalLoop=1;jettySize=auto;html=1;exitX=1;exitY=0.5;exitDx=0;exitDy=0;entryX=0.5;entryY=0;entryDx=0;entryDy=0;strokeColor=#457B9D;fontSize=19;fontColor=default;endArrow=ERzeroToMany;endFill=0;fillColor=#A8DADC;startArrow=ERmandOne;startFill=0;labelBackgroundColor=none;" edge="1" parent="1" source="ip9N9a8k5Pp6pJVHzamk-39" target="SsWh1Jsw6skmhXWUFT4k-27">
          <mxGeometry relative="1" as="geometry">
            <Array as="points">
              <mxPoint x="571" y="-225" />
              <mxPoint x="571" y="-680" />
              <mxPoint x="190" y="-680" />
            </Array>
          </mxGeometry>
        </mxCell>
        <mxCell id="Q6eESg3bnOgGgJ7bAwSE-1" style="edgeStyle=orthogonalEdgeStyle;rounded=0;orthogonalLoop=1;jettySize=auto;html=1;exitX=1;exitY=0.5;exitDx=0;exitDy=0;startArrow=ERmandOne;startFill=0;endArrow=ERmandOne;endFill=0;labelBackgroundColor=none;strokeColor=#457B9D;fontColor=default;entryX=0;entryY=0.5;entryDx=0;entryDy=0;" edge="1" parent="1" source="Y2-m1TY2lKCQPCWbgqXC-10" target="ip9N9a8k5Pp6pJVHzamk-41">
          <mxGeometry relative="1" as="geometry">
            <mxPoint x="390" y="-125" as="targetPoint" />
            <Array as="points">
              <mxPoint x="110" y="-165" />
              <mxPoint x="110" y="-165" />
            </Array>
            <mxPoint x="382" y="29" as="sourcePoint" />
          </mxGeometry>
        </mxCell>
        <mxCell id="SsWh1Jsw6skmhXWUFT4k-85" style="edgeStyle=orthogonalEdgeStyle;rounded=0;orthogonalLoop=1;jettySize=auto;html=1;entryX=0.5;entryY=0;entryDx=0;entryDy=0;dashed=1;strokeColor=#457B9D;fontColor=#1D3557;startArrow=ERzeroToMany;startFill=0;endArrow=ERmandOne;endFill=0;fillColor=#A8DADC;" edge="1" parent="1" source="SsWh1Jsw6skmhXWUFT4k-77" target="Y2-m1TY2lKCQPCWbgqXC-1">
          <mxGeometry relative="1" as="geometry" />
        </mxCell>
        <mxCell id="SsWh1Jsw6skmhXWUFT4k-77" value="COMMISSION" style="swimlane;fontStyle=0;childLayout=stackLayout;horizontal=1;startSize=30;horizontalStack=0;resizeParent=1;resizeParentMax=0;resizeLast=0;collapsible=1;marginBottom=0;whiteSpace=wrap;html=1;strokeColor=#457B9D;fontColor=#1D3557;fillColor=#A8DADC;" vertex="1" parent="1">
          <mxGeometry x="-231" y="-650" width="140" height="120" as="geometry" />
        </mxCell>
        <mxCell id="SsWh1Jsw6skmhXWUFT4k-81" value="&lt;b&gt;&lt;u&gt;TransID&lt;/u&gt;&lt;/b&gt;" style="text;strokeColor=none;fillColor=none;align=left;verticalAlign=middle;spacingLeft=4;spacingRight=4;overflow=hidden;points=[[0,0.5],[1,0.5]];portConstraint=eastwest;rotatable=0;whiteSpace=wrap;html=1;labelBackgroundColor=none;fontColor=#1D3557;" vertex="1" parent="SsWh1Jsw6skmhXWUFT4k-77">
          <mxGeometry y="30" width="140" height="30" as="geometry" />
        </mxCell>
        <mxCell id="SsWh1Jsw6skmhXWUFT4k-82" value="CooperateID" style="text;strokeColor=none;fillColor=none;align=left;verticalAlign=middle;spacingLeft=4;spacingRight=4;overflow=hidden;points=[[0,0.5],[1,0.5]];portConstraint=eastwest;rotatable=0;whiteSpace=wrap;html=1;fontStyle=5;labelBackgroundColor=none;fontColor=#1D3557;" vertex="1" parent="SsWh1Jsw6skmhXWUFT4k-77">
          <mxGeometry y="60" width="140" height="30" as="geometry" />
        </mxCell>
        <mxCell id="SsWh1Jsw6skmhXWUFT4k-80" value="Total Commission" style="text;strokeColor=none;fillColor=none;align=left;verticalAlign=middle;spacingLeft=4;spacingRight=4;overflow=hidden;points=[[0,0.5],[1,0.5]];portConstraint=eastwest;rotatable=0;whiteSpace=wrap;html=1;fontColor=#1D3557;" vertex="1" parent="SsWh1Jsw6skmhXWUFT4k-77">
          <mxGeometry y="90" width="140" height="30" as="geometry" />
        </mxCell>
        <mxCell id="SsWh1Jsw6skmhXWUFT4k-83" style="edgeStyle=orthogonalEdgeStyle;rounded=0;orthogonalLoop=1;jettySize=auto;html=1;exitX=0;exitY=0.5;exitDx=0;exitDy=0;entryX=1;entryY=0.5;entryDx=0;entryDy=0;dashed=1;strokeColor=#457B9D;fontColor=#1D3557;startArrow=ERmandOne;startFill=0;endArrow=ERzeroToMany;endFill=0;fillColor=#A8DADC;" edge="1" parent="1" source="pi3gJOTw6T2ri1ZfQAsP-25" target="SsWh1Jsw6skmhXWUFT4k-81">
          <mxGeometry relative="1" as="geometry">
            <Array as="points">
              <mxPoint x="-66" y="-355" />
              <mxPoint x="-66" y="-605" />
            </Array>
          </mxGeometry>
        </mxCell>
        <mxCell id="SsWh1Jsw6skmhXWUFT4k-90" value="&lt;b&gt;Customer&lt;/b&gt;" style="text;html=1;strokeColor=none;fillColor=none;align=center;verticalAlign=middle;whiteSpace=wrap;rounded=0;dashed=1;strokeWidth=0;fontColor=#1D3557;" vertex="1" parent="1">
          <mxGeometry x="686" y="-460" width="66" height="21" as="geometry" />
        </mxCell>
        <mxCell id="SsWh1Jsw6skmhXWUFT4k-93" value="&lt;b&gt;Transaction&lt;/b&gt;" style="text;html=1;strokeColor=none;fillColor=none;align=center;verticalAlign=middle;whiteSpace=wrap;rounded=0;dashed=1;strokeWidth=0;fontColor=#1D3557;" vertex="1" parent="1">
          <mxGeometry x="-273" y="-698" width="66" height="21" as="geometry" />
        </mxCell>
        <mxCell id="SsWh1Jsw6skmhXWUFT4k-96" value="&lt;b&gt;Location&lt;/b&gt;" style="text;html=1;strokeColor=none;fillColor=none;align=center;verticalAlign=middle;whiteSpace=wrap;rounded=0;dashed=1;strokeWidth=0;fontColor=#1D3557;" vertex="1" parent="1">
          <mxGeometry x="-72" y="144" width="66" height="21" as="geometry" />
        </mxCell>
        <mxCell id="SsWh1Jsw6skmhXWUFT4k-98" value="&lt;b&gt;Banks and Partners&lt;/b&gt;" style="text;html=1;strokeColor=none;fillColor=none;align=center;verticalAlign=middle;whiteSpace=wrap;rounded=0;dashed=1;strokeWidth=0;fontColor=#1D3557;" vertex="1" parent="1">
          <mxGeometry x="-507" y="25" width="66" height="21" as="geometry" />
        </mxCell>
      </root>
    </mxGraphModel>
  </diagram>
</mxfile>
